<svg xmlns="http://www.w3.org/2000/svg" width="80" height="80" fill="#151513" viewBox="0 0 250 250"  style="position: absolute; top: 0; left: 0">
  <path fill="#fff" class="octo-background" d="M 250,0 C 161.77265,85.894309 87.828547,162.17145 0,250 V 0 Z"></path>
  <path fill="currentColor" class="octo-body" d="m 89.953613,49.908447 -18.93921,5.041503 c -0.0028,0.01812 -0.0094,0.03063 -0.01219,0.04884 -4,2 -7.999513,5.002687 -11.999513,9.002687 -4,4 -7.002684,7.99951 -9.002684,11.99951 -14,4.000003 -16.998291,8.996584 -16.998291,8.996584 4,8 8.998534,11.004638 10.998534,11.004638 0,6.000001 2.000735,10.997321 7.000732,15.997321 16.000003,16 29.997315,10.00195 40.997315,2.00195 0,3 0.998782,6.99854 4.998779,10.99854 l 12.005615,10.99853 c 1,2 -1.00097,5.99976 -1.00097,5.99976 l 26.99585,-26.99585 c 0,0 -3.99878,2 -4.99878,0 l -14.00147,-14.00147 c -3,-2.000003 -5.9956,-3.002931 -7.9956,-3.002931 8,-11 14.99804,-23.997316 -2.00195,-40.997316 -5.00001,-5 -9.997324,-7.000731 -15.997324,-7.000731 -0.01156,-0.02313 -0.03703,-0.06772 -0.04884,-0.09156 z"></path>
  <path fill="currentColor" class="octo-arm" d="m 101.55303,128.29138 c -9.000003,15 -19.000004,9 -19.000004,9 -7,-3 -11,-2 -11,-2 -7.000002,1 -1.999998,-3 -1.999998,-3 4.999996,-4.00001 11,-2 11,-2 10.000001,3 15.000001,-5 16.000001,-9" style="transform-origin: 130px 106px;"></path>
  <path fill="currentColor"  class="octo-ear" d="m 78.002931,39.001465 c 0,0 -5.000734,2.997313 -7.000734,15.997313 -0.02844,0.01437 -0.05691,0.03444 -0.08544,0.04884 l 0.554312,3.94171 19.797551,-5.446895 -1.284476,-3.572937 C 88.980142,47.953884 86.967459,42.985709 78.002945,39.001481 Z" style="transform-origin:180px 90px;"></path>
  <path fill="#fff" class="octo-face" d="m 66.316586,91.684167 c -3.732719,3.695302 -5.499914,7.911113 -5.109057,12.189823 0.402191,4.40252 2.856545,7.13979 3.598819,7.87463 7.147689,7.07602 16.6566,5.83073 26.774601,-3.5071 1.898425,-1.74974 3.88999,-3.6547 5.918691,-5.66307 2.008923,-1.98876 3.97015,-3.993798 5.8295,-5.960792 11.03287,-11.661932 7.51635,-19.883384 2.62392,-24.726418 -4.74759,-4.699985 -12.64784,-6.925112 -20.588233,0.935666 -0.195089,0.193132 -0.479788,0.515601 -1.17978,1.318428 -1.495895,1.714736 -4.280356,4.904844 -7.250493,7.845202 -3.280289,3.247391 -6.797215,6.325174 -8.899525,8.162522 -0.980686,0.857626 -1.464135,1.279345 -1.718443,1.531102 z"></path>
  <path fill="currentColor" class="octo-mouth" d="m 95.485225,97.428842 c -0.167852,0.167851 -0.167673,0.439893 0,0.607564 0.669254,0.669256 0.630878,2.203944 -0.421781,3.256604 -0.151892,0.15189 -0.314722,0.28137 -0.484546,0.39094 -0.424651,0.27437 -0.891264,0.42501 -1.329543,0.49172 -0.08769,0.0135 -0.174308,0.0233 -0.25913,0.0303 -0.254468,0.021 -0.493513,0.0144 -0.702251,-0.0111 -0.347539,-0.0423 -0.610435,-0.13665 -0.717494,-0.24371 -0.167673,-0.16767 -0.439714,-0.16785 -0.607566,0 -0.167851,0.16785 -0.167672,0.43989 0,0.60756 0.08662,0.0866 0.201028,0.16552 0.337676,0.23439 0.205152,0.10293 0.460875,0.18327 0.749235,0.23241 0.288361,0.0491 0.609538,0.0669 0.94578,0.0456 0.336062,-0.0215 0.687367,-0.0827 1.036161,-0.19117 0.435768,-0.13593 0.867413,-0.34628 1.260501,-0.6472 0.13091,-0.10042 0.257695,-0.21071 0.378742,-0.33175 0.630878,-0.63088 0.973575,-1.38245 1.079738,-2.108367 0.01506,-0.103652 0.02546,-0.206945 0.03102,-0.308983 0.01112,-0.204435 0.0038,-0.405104 -0.02134,-0.598779 -0.06276,-0.483828 -0.2351,-0.922646 -0.498713,-1.26337 -0.05272,-0.06815 -0.109032,-0.132345 -0.168928,-0.19224 -0.167851,-0.168211 -0.439893,-0.168031 -0.607565,-3.59e-4 z"></path>
  <path fill="currentColor" class="octo-nose" d="m 90.814968,98.84751 c 0.186502,0.03622 0.378742,0.03622 0.565244,0 0.06994,-0.01363 0.139159,-0.03228 0.206945,-0.05595 0.135573,-0.04734 0.265586,-0.114949 0.385378,-0.20318 0.05989,-0.04411 0.117281,-0.09325 0.171438,-0.147408 0.216629,-0.216629 0.352201,-0.483829 0.406179,-0.763761 0.0226,-0.116564 0.0312,-0.235279 0.02547,-0.353635 -0.0079,-0.164625 -0.05326,-0.325124 -0.116026,-0.480423 -0.07227,-0.17879 -0.170721,-0.349689 -0.315797,-0.494767 -0.577797,-0.577797 -1.51479,-0.577977 -2.092587,-1.8e-4 -0.288898,0.2889 -0.433258,0.667463 -0.433078,1.046384 0,0.0165 0.0041,0.03282 0.0047,0.04949 0.0038,0.111363 0.02224,0.221291 0.05093,0.329606 0.04035,0.151891 0.09899,0.299837 0.188296,0.435051 0.05416,0.08213 0.11746,0.159782 0.189729,0.232052 0.07227,0.07227 0.150098,0.135393 0.232052,0.189729 0.163906,0.108673 0.344669,0.180764 0.531171,0.216988 z"></path>
  <path fill="currentColor" class="octo-left-eye" d="m 72.095924,95.622822 c -0.477552,-0.04932 -0.942372,-0.05111 -1.387107,-0.0041 -0.444735,0.04698 -0.869744,0.142387 -1.266957,0.28818 -0.397213,0.145796 -0.767706,0.341622 -1.103409,0.589095 -0.167852,0.123738 -0.327096,0.260385 -0.476835,0.410125 -2.395114,2.395114 -1.443237,7.230167 2.12612,10.799527 3.569358,3.56935 7.999494,4.11631 10.394607,1.72119 0.14974,-0.14974 0.288002,-0.30737 0.414608,-0.47235 0.253392,-0.32978 0.460696,-0.68844 0.621912,-1.07059 0.161037,-0.38197 0.276166,-0.78725 0.34467,-1.21047 0.0685,-0.42286 0.09074,-0.86365 0.06653,-1.31645 -0.02439,-0.45263 -0.09522,-0.91727 -0.212684,-1.38836 -0.411201,-1.64857 -1.39446,-3.37497 -2.956054,-4.936556 -1.561594,-1.561594 -3.365461,-2.622323 -5.101363,-3.120857 -0.496023,-0.142745 -0.986487,-0.239045 -1.464039,-0.28836 z"></path>
  <path fill="currentColor" class="octo-eye" d="m 91.300052,73.466945 c -2.395114,2.395114 -1.443237,7.230173 2.126121,10.799531 3.569358,3.569358 7.999317,4.11649 10.394607,1.721197 2.3953,-2.395293 1.84817,-6.825249 -1.72119,-10.394607 -3.569365,-3.569358 -8.404245,-4.521414 -10.799538,-2.126121 z" style="transform-origin: 170px 100px;"></path>
 </svg>
